# xmcd
#
# Track frame offsets: 
#        150
#        18553
#        40705
#        65875
#        83538
#        122493
#        141765
#        165353
#        195753
#        209478
#        229390
#
# Disc length: 3340 seconds
#
# Revision: 1
# Processed by: cddbd v1.5.2PL0 Copyright (c) Steve Scherf et al.
# Submitted via: ExactAudioCopy v0.99pb4
#
DISCID=8c0d0a0b
DTITLE=Jeannie Bryson - I Love Being Here With You
DYEAR=1993
DGENRE=Jazz
TTITLE0=Cheek To Cheek
TTITLE1=Squeeze Me
TTITLE2=Bitter Sweet
TTITLE3=A Sleepin' Bee
TTITLE4=Love Dance
TTITLE5=I Feel so Smoochie
TTITLE6=You've Changed
TTITLE7=Sunshower
TTITLE8=Cloudy Morning
TTITLE9=Change Partners
TTITLE10=I Love Being Here With You
EXTD=YEAR: 1993
EXTT0=
EXTT1=
EXTT2=
EXTT3=
EXTT4=
EXTT5=
EXTT6=
EXTT7=
EXTT8=
EXTT9=
EXTT10=
PLAYORDER=
